Coordinates
version=1
nRows=49
nColumns=12
inDegrees=yes

Units are S.I. units (second, meters, Newtons, ...)
Angles are in degrees

endheader
time	SC_y	SC_z	SC_x	AC_y	AC_z	AC_x	GH_y	GH_z	GH_yy	EL_x	PS_y
       0.0              -28.02          20.85          47.46          63.98          -5.09          8.974         -79.15          53.63         -63.61          133.7           23.5
   0.03672              -28.02          20.85          47.46          63.98         -5.088          8.971         -79.15          53.63         -63.58          133.7          23.51
   0.07344              -28.02          20.84          47.46          63.97         -5.087          8.968         -79.16          53.63         -63.55          133.6          23.52
    0.1102              -28.03          20.84          47.47          63.97         -5.086          8.965         -79.17          53.64         -63.52          133.6          23.53
    0.1469              -28.03          20.84          47.47          63.97         -5.084          8.962         -79.18          53.64         -63.48          133.6          23.55
    0.1836              -28.03          20.84          47.47          63.96         -5.083          8.959         -79.19          53.64         -63.45          133.6          23.56
    0.2203              -28.04          20.84          47.47          63.96         -5.081          8.955          -79.2          53.64         -63.41          133.6          23.58
     0.257              -28.04          20.84          47.47          63.95         -5.079          8.951         -79.21          53.65         -63.37          133.6          23.59
    0.2938              -28.05          20.84          47.47          63.95         -5.078          8.947         -79.22          53.65         -63.33          133.5          23.61
    0.3305              -28.05          20.84          47.47          63.94         -5.076          8.942         -79.24          53.66         -63.28          133.5          23.63
    0.3672              -28.06          20.84          47.48          63.94         -5.073          8.937         -79.25          53.66         -63.23          133.5          23.65
    0.4039              -28.06          20.84          47.48          63.93         -5.071          8.932         -79.26          53.66         -63.18          133.5          23.67
    0.4406              -28.07          20.84          47.48          63.93         -5.069          8.926         -79.28          53.67         -63.12          133.4          23.69
    0.4774              -28.07          20.84          47.48          63.92         -5.066           8.92          -79.3          53.67         -63.06          133.4          23.72
    0.5141              -28.08          20.83          47.49          63.91         -5.063          8.914         -79.32          53.68         -62.99          133.4          23.74
    0.5508              -28.09          20.83          47.49          63.91          -5.06          8.906         -79.34          53.68         -62.92          133.3          23.77
    0.5875               -28.1          20.83          47.49           63.9         -5.056          8.899         -79.36          53.69         -62.84          133.3           23.8
    0.6242               -28.1          20.83           47.5          63.89         -5.053           8.89         -79.38           53.7         -62.75          133.3          23.84
     0.661              -28.11          20.83           47.5          63.88         -5.049          8.881         -79.41           53.7         -62.65          133.2          23.87
    0.6977              -28.12          20.83           47.5          63.87         -5.044          8.871         -79.44          53.71         -62.55          133.2          23.91
    0.7344              -28.14          20.82          47.51          63.85         -5.039          8.859         -79.47          53.72         -62.44          133.1          23.96
    0.7711              -28.15          20.82          47.51          63.84         -5.034          8.847          -79.5          53.73         -62.31          133.1          24.01
    0.8078              -28.16          20.82          47.52          63.83         -5.028          8.833         -79.54          53.74         -62.17          133.0          24.06
    0.8445              -28.18          20.82          47.52          63.81         -5.021          8.818         -79.59          53.75         -62.02          132.9          24.12
    0.8813              -28.19          20.81          47.53          63.79         -5.014          8.802         -79.63          53.77         -61.85          132.9          24.19
     0.918              -28.21          20.81          47.54          63.77         -5.006          8.783         -79.69          53.78         -61.66          132.8          24.26
    0.9547              -28.24           20.8          47.55          63.75         -4.996          8.762         -79.74           53.8         -61.44          132.7          24.35
    0.9914              -28.26           20.8          47.56          63.72         -4.986          8.738         -79.81          53.82          -61.2          132.6          24.44
     1.028              -28.29          20.79          47.57          63.69         -4.974          8.712         -79.89          53.84         -60.93          132.4          24.55
     1.065              -28.32          20.79          47.58          63.66         -4.961          8.681         -79.97          53.87         -60.62          132.3          24.67
     1.102              -28.35          20.78          47.59          63.62         -4.946          8.647         -80.07          53.89         -60.27          132.1          24.81
     1.138              -28.39          20.77          47.61          63.58         -4.928          8.607         -80.18          53.92         -59.87          131.9          24.96
     1.175              -28.44          20.77          47.63          63.53         -4.908          8.562         -80.31          53.96          -59.4          131.7          25.15
     1.212              -28.49          20.76          47.65          63.47         -4.885          8.509         -80.46           54.0         -58.86          131.5          25.36
     1.248              -28.56          20.74          47.67          63.41         -4.858          8.446         -80.64          54.05         -58.23          131.2          25.61
     1.285              -28.63          20.73           47.7          63.33         -4.826          8.373         -80.84          54.11         -57.48          130.8           25.9
     1.322              -28.72          20.71          47.74          63.23         -4.787          8.286         -81.09          54.18          -56.6          130.4          26.25
     1.359              -28.83          20.69          47.78          63.12         -4.741          8.182         -81.38          54.27         -55.53          129.9          26.66
     1.395              -28.96          20.67          47.83          62.98         -4.686          8.055         -81.74          54.37         -54.25          129.3          27.17
     1.432              -29.11          20.64          47.89          62.82         -4.618          7.901         -82.18          54.49         -52.68          128.6          27.78
     1.469              -29.31           20.6          47.97          62.61         -4.535          7.711         -82.71          54.65         -50.74          127.7          28.54
     1.506              -29.55          20.55          48.06          62.35          -4.43          7.473         -83.38          54.84         -48.32          126.6          29.49
     1.542              -29.86           20.5          48.18          62.03         -4.299          7.174         -84.23          55.08         -45.27          125.2          30.68
     1.579              -30.24          20.42          48.34          61.62         -4.132          6.794          -85.3          55.39          -41.4          123.4           32.2
     1.616              -30.74          20.33          48.53          61.09         -3.918          6.307         -86.68          55.78         -36.44          121.1          34.14
     1.652              -31.38          20.21          48.78          60.41         -3.644          5.683         -88.44          56.28         -30.08          118.2          36.63
     1.689              -32.19          20.05           49.1          59.55         -3.293          4.885         -90.69          56.92         -21.95          114.4          39.81
     1.726              -33.21          19.86           49.5          58.47         -2.853          3.882         -93.53          57.73         -11.74          109.7          43.81
     1.763              -34.46          19.62          49.99          57.14         -2.316           2.66         -96.98          58.72          0.715          104.0          48.69
